<svg width="177" height="109" viewBox="0 0 177 109" fill="none" xmlns="http://www.w3.org/2000/svg">
<circle cx="50" cy="50" r="50" fill="#E0E0E0"/>
<circle cx="60" cy="50" r="40" fill="black"/>
<path d="M53.3477 52.9092C53.1104 54.9395 52.3589 56.5083 51.0933 57.6157C49.8364 58.7144 48.1621 59.2637 46.0703 59.2637C43.8027 59.2637 41.9834 58.4507 40.6123 56.8247C39.25 55.1987 38.5688 53.0234 38.5688 50.2988V48.4531C38.5688 46.6689 38.8853 45.1001 39.5181 43.7466C40.1597 42.3931 41.0649 41.356 42.2339 40.6353C43.4028 39.9058 44.7563 39.541 46.2944 39.541C48.3335 39.541 49.9683 40.1123 51.1987 41.2549C52.4292 42.3887 53.1455 43.9619 53.3477 45.9746H50.8032C50.5835 44.4453 50.1045 43.3379 49.3662 42.6523C48.6367 41.9668 47.6128 41.624 46.2944 41.624C44.6772 41.624 43.4072 42.2217 42.4844 43.417C41.5703 44.6123 41.1133 46.313 41.1133 48.519V50.3779C41.1133 52.4609 41.5483 54.1177 42.4185 55.3481C43.2886 56.5786 44.5059 57.1938 46.0703 57.1938C47.4766 57.1938 48.5532 56.8774 49.3003 56.2446C50.0562 55.603 50.5571 54.4912 50.8032 52.9092H53.3477ZM55.7866 51.7358C55.7866 50.3384 56.0591 49.0815 56.604 47.9653C57.1577 46.8491 57.9224 45.9878 58.8979 45.3813C59.8823 44.7749 61.0029 44.4717 62.2598 44.4717C64.2021 44.4717 65.771 45.144 66.9663 46.4888C68.1704 47.8335 68.7725 49.6221 68.7725 51.8545V52.0259C68.7725 53.4146 68.5044 54.6626 67.9683 55.77C67.4409 56.8687 66.6807 57.7256 65.6875 58.3408C64.7031 58.9561 63.5693 59.2637 62.2861 59.2637C60.3525 59.2637 58.7837 58.5913 57.5796 57.2466C56.3843 55.9019 55.7866 54.1221 55.7866 51.9072V51.7358ZM58.2388 52.0259C58.2388 53.6079 58.6035 54.8779 59.333 55.8359C60.0713 56.7939 61.0557 57.2729 62.2861 57.2729C63.5254 57.2729 64.5098 56.7896 65.2393 55.8228C65.9688 54.8472 66.3335 53.4849 66.3335 51.7358C66.3335 50.1714 65.96 48.9058 65.2129 47.939C64.4746 46.9634 63.4902 46.4756 62.2598 46.4756C61.0557 46.4756 60.0845 46.9546 59.3462 47.9126C58.6079 48.8706 58.2388 50.2417 58.2388 52.0259ZM71.1851 51.7358C71.1851 50.3384 71.4575 49.0815 72.0024 47.9653C72.5562 46.8491 73.3208 45.9878 74.2964 45.3813C75.2808 44.7749 76.4014 44.4717 77.6582 44.4717C79.6006 44.4717 81.1694 45.144 82.3647 46.4888C83.5688 47.8335 84.1709 49.6221 84.1709 51.8545V52.0259C84.1709 53.4146 83.9028 54.6626 83.3667 55.77C82.8394 56.8687 82.0791 57.7256 81.0859 58.3408C80.1016 58.9561 78.9678 59.2637 77.6846 59.2637C75.751 59.2637 74.1821 58.5913 72.978 57.2466C71.7827 55.9019 71.1851 54.1221 71.1851 51.9072V51.7358ZM73.6372 52.0259C73.6372 53.6079 74.002 54.8779 74.7314 55.8359C75.4697 56.7939 76.4541 57.2729 77.6846 57.2729C78.9238 57.2729 79.9082 56.7896 80.6377 55.8228C81.3672 54.8472 81.7319 53.4849 81.7319 51.7358C81.7319 50.1714 81.3584 48.9058 80.6113 47.939C79.873 46.9634 78.8887 46.4756 77.6582 46.4756C76.4541 46.4756 75.4829 46.9546 74.7446 47.9126C74.0063 48.8706 73.6372 50.2417 73.6372 52.0259ZM91.2109 52.395L89.6816 53.9902V59H87.2427V38.75H89.6816V50.9976L90.9868 49.4287L95.4297 44.7354H98.396L92.8457 50.6943L99.042 59H96.1812L91.2109 52.395Z" fill="white"/>
<line x1="112.002" y1="34.4834" x2="112.002" y2="44.4934" stroke="#C4C4C4" stroke-width="6" stroke-linecap="round"/>
<path fill-rule="evenodd" clip-rule="evenodd" d="M142.005 108.01C160.785 108.01 176.01 92.7854 176.01 74.005C176.01 55.2246 160.785 40 142.005 40C123.225 40 108 55.2246 108 74.005C108 92.7854 123.225 108.01 142.005 108.01ZM142 98C155.255 98 166 87.2548 166 74C166 60.7452 155.255 50 142 50C128.745 50 118 60.7452 118 74C118 87.2548 128.745 98 142 98Z" fill="#E0E0E0"/>
<line x1="110.997" y1="13.4884" x2="173.007" y2="13.4884" stroke="#E0E0E0" stroke-width="6" stroke-linecap="round"/>
<line x1="109.997" y1="21.4884" x2="174.007" y2="21.4884" stroke="#E0E0E0" stroke-width="4" stroke-linecap="round"/>
<line x1="108.997" y1="27.4884" x2="175.007" y2="27.4884" stroke="#E0E0E0" stroke-width="2" stroke-linecap="round"/>
</svg>
