<svg width="218" height="212" viewBox="0 0 218 212" fill="none" xmlns="http://www.w3.org/2000/svg">
<path d="M213.503 106C213.503 162.626 167.83 208.5 111.527 208.5C83.041 208.5 50.9813 199.017 29.3748 181.532C18.6097 172.821 10.5513 162.219 6.68626 149.923C2.83409 137.667 3.05535 123.442 9.31615 107.263C15.6082 91.003 24.0378 80.72 33.3471 73.3262C42.3925 66.142 52.3451 61.607 62.5179 56.9717C62.9224 56.7874 63.3271 56.603 63.7322 56.4182C74.2003 51.6433 84.9033 46.6337 94 38.3536C102.72 30.416 109.814 19.6295 114.224 3.53516C169.282 4.97214 213.503 50.2813 213.503 106Z" fill="#FFD600" stroke="#E8C300" stroke-width="7" stroke-linecap="round" stroke-linejoin="round"/>
<path d="M198.503 126C198.503 171.51 160.746 208.5 114.051 208.5C90.4816 208.5 63.9521 200.871 46.0582 186.786C37.1382 179.764 30.4549 171.213 27.2494 161.294C24.055 151.408 24.2429 139.946 29.4232 126.924C39.5598 101.443 56.488 93.9409 73.448 86.4243C73.7876 86.2738 74.1273 86.1233 74.4668 85.9727C83.0991 82.1426 91.8678 78.1473 99.3175 71.5515C106.498 65.1934 112.349 56.5249 115.968 43.5208C161.775 44.5166 198.503 81.1141 198.503 126Z" fill="#179D7D" stroke="#148E71" stroke-width="5" stroke-linejoin="round"/>
<path d="M185.87 143C185.87 178.957 153.745 208.5 113.606 208.5C93.3624 208.5 70.6064 202.401 55.2899 191.183C47.6561 185.592 41.9927 178.823 39.2859 171.03C36.596 163.285 36.7374 154.28 41.1401 143.983C49.7779 123.781 64.1969 117.834 78.8239 111.802C79.0997 111.688 79.3755 111.575 79.6513 111.461C87.0652 108.4 94.6487 105.189 101.101 99.8733C107.276 94.7872 112.327 87.8588 115.48 77.5215C154.74 78.4242 185.87 107.605 185.87 143Z" fill="#FF7A00" stroke="#F17400" stroke-width="5" stroke-linejoin="round"/>
<path d="M166.503 155C166.503 183.37 142.964 206.5 113.762 206.5C98.85 206.5 82.1268 201.655 70.9496 192.853C65.3986 188.482 61.3429 183.24 59.4107 177.259C57.4938 171.324 57.5671 164.359 60.7746 156.293C67.046 140.522 77.3787 135.94 88.3249 131.086C88.5241 130.997 88.7236 130.909 88.9232 130.82C94.4834 128.352 100.415 125.665 105.481 121.177C110.144 117.047 113.943 111.526 116.398 103.563C144.367 104.905 166.503 127.489 166.503 155Z" fill="#E60000" stroke="#FA0202" stroke-width="7" stroke-linejoin="round"/>
</svg>
