<svg width="367" height="339" viewBox="0 0 367 339" fill="none" xmlns="http://www.w3.org/2000/svg">
<path d="M170.474 16.5C174.708 9.16666 185.292 9.16667 189.526 16.5L257.076 133.5C261.31 140.833 256.018 150 247.55 150H112.45C103.982 150 98.6898 140.833 102.924 133.5L170.474 16.5Z" fill="#0097C7"/>
<path d="M249.234 125.56C255.959 120.795 265.342 124.845 266.487 133.007L284.396 260.653C285.588 269.152 277.023 275.682 269.143 272.281L146.064 219.157C138.184 215.756 137.061 205.044 144.063 200.082L249.234 125.56Z" fill="#0097C7"/>
<path d="M91.828 265.236C83.7493 267.773 75.9535 260.613 77.7957 252.348L107.187 120.484C109.029 112.219 119.127 109.048 125.364 114.776L224.866 206.161C231.103 211.889 228.8 222.22 220.721 224.757L91.828 265.236Z" fill="#0097C7"/>
<path d="M51.434 100.251C46.9857 93.0455 52.0056 83.7268 60.4697 83.4772L199.457 79.3784C206.917 79.1584 212.426 86.2721 210.346 93.4391L189.683 164.647C189.233 166.197 188.448 167.628 187.383 168.841L142.225 220.249C137.346 225.804 128.485 225.06 124.601 218.768L51.434 100.251Z" fill="#0097C7"/>
<path d="M305.729 83.5264C314.195 83.6842 319.316 92.9478 314.946 100.201L243.072 219.502C239.256 225.837 230.402 226.676 225.463 221.173L177.208 167.403C176.084 166.151 175.263 164.658 174.807 163.038L155.619 94.9108C153.619 87.8107 159.037 80.7932 166.412 80.9306L305.729 83.5264Z" fill="#0097C7"/>
</svg>
